# xmcd CD database file
#
# Track frame offsets:
#	150
#	15486
#	29574
#	43367
#	55314
#	68892
#	82494
#	95704
#	108247
#	120286
#	133649
#	149754
#	169812
#	184588
#	199838
#	213450
#	225538
#	240311
#	252551
#	264955
#	276380
#	289249
#
# Disc length: 4039 seconds
#
# Revision: 0
# Processed by: cddbd v1.5.2PL0 Copyright (c) Steve Scherf et al.
# Submitted via: CDex 1.70beta2
#
DISCID=550fc516
DTITLE=Various Artist - 4 Acoustic Guitar Giants
DYEAR=2002
DGENRE=Blues
TTITLE0=Bunn, Teddy - Apex Blues
TTITLE1=Bunn, Teddy - Four Or Five Times
TTITLE2=Bunn, Teddy - Wild Man Blues
TTITLE3=Bunn, Teddy - Melancholy
TTITLE4=Bunn, Teddy - Saturday Night Blues
TTITLE5=Bunn, Teddy - Becht's Steady Rider
TTITLE6=Bunn, Teddy - If You See Me Comin' Take 2
TTITLE7=Johnson, Lonny - Blues In G
TTITLE8=Johnson, Lonny - Got The Blues For The Westend
TTITLE9=Johnson, Lonny - Blues In My Soul
TTITLE10=Johnson, Lonny - Savoy Blues
TTITLE11=Casey, Al - Blue Turning Grey Over You
TTITLE12=Casey, Al - You Look Good To Me
TTITLE13=Casey, Al - Fat Waller's Original E Flat Blues
TTITLE14=Casey, Al - Everybody Loves My Baby
TTITLE15=Casey, Al - Buck Jumpin'
TTITLE16=Reinhardt, Django - Minor Swing
TTITLE17=Reinhardt, Django - Saint-Louis Blues
TTITLE18=Reinhardt, Django - Bouncin' Around
TTITLE19=Reinhardt, Django - I'll See You In My Dreams
TTITLE20=Reinhardt, Django - Oiseaux Des Iles
TTITLE21=Reinhardt, Django - Blues Clair
EXTD=YEAR: 2002
EXTT0=
EXTT1=
EXTT2=
EXTT3=
EXTT4=
EXTT5=
EXTT6=
EXTT7=
EXTT8=
EXTT9=
EXTT10=
EXTT11=
EXTT12=
EXTT13=
EXTT14=
EXTT15=
EXTT16=
EXTT17=
EXTT18=
EXTT19=
EXTT20=
EXTT21=
PLAYORDER=
